{
	"patcher" : 	{
		"fileversion" : 1,
		"appversion" : 		{
			"major" : 6,
			"minor" : 1,
			"revision" : 3,
			"architecture" : "x64"
		}
,
		"rect" : [ 174.0, 44.0, 487.0, 425.0 ],
		"bglocked" : 0,
		"openinpresentation" : 0,
		"default_fontsize" : 12.0,
		"default_fontface" : 0,
		"default_fontname" : "Arial",
		"gridonopen" : 0,
		"gridsize" : [ 15.0, 15.0 ],
		"gridsnaponopen" : 0,
		"statusbarvisible" : 2,
		"toolbarvisible" : 1,
		"boxanimatetime" : 200,
		"imprint" : 0,
		"enablehscroll" : 1,
		"enablevscroll" : 1,
		"devicewidth" : 0.0,
		"description" : "",
		"digest" : "",
		"tags" : "",
		"boxes" : [ 			{
				"box" : 				{
					"fontname" : "Arial",
					"fontsize" : 9.0,
					"hidden" : 1,
					"id" : "obj-32",
					"maxclass" : "newobj",
					"numinlets" : 1,
					"numoutlets" : 1,
					"outlettype" : [ "" ],
					"patching_rect" : [ 7.0, 51.0, 57.0, 17.0 ],
					"text" : "loadmess 1"
				}

			}
, 			{
				"box" : 				{
					"fontname" : "Arial",
					"fontsize" : 9.0,
					"frgb" : 0.0,
					"id" : "obj-1",
					"maxclass" : "comment",
					"numinlets" : 1,
					"numoutlets" : 0,
					"patching_rect" : [ 255.0, 381.0, 29.0, 17.0 ],
					"text" : "max"
				}

			}
, 			{
				"box" : 				{
					"fontname" : "Arial",
					"fontsize" : 9.0,
					"frgb" : 0.0,
					"id" : "obj-2",
					"maxclass" : "comment",
					"numinlets" : 1,
					"numoutlets" : 0,
					"patching_rect" : [ 154.0, 381.0, 39.0, 17.0 ],
					"text" : "middle"
				}

			}
, 			{
				"box" : 				{
					"bgcolor" : [ 0.866667, 0.866667, 0.866667, 1.0 ],
					"fontname" : "Arial",
					"fontsize" : 9.0,
					"htextcolor" : [ 0.870588, 0.870588, 0.870588, 1.0 ],
					"id" : "obj-3",
					"maxclass" : "number~",
					"mode" : 2,
					"numinlets" : 2,
					"numoutlets" : 2,
					"outlettype" : [ "signal", "float" ],
					"patching_rect" : [ 40.0, 158.0, 49.0, 17.0 ],
					"sig" : 0.0
				}

			}
, 			{
				"box" : 				{
					"bgcolor" : [ 0.866667, 0.866667, 0.866667, 1.0 ],
					"fontname" : "Arial",
					"fontsize" : 9.0,
					"htextcolor" : [ 0.870588, 0.870588, 0.870588, 1.0 ],
					"id" : "obj-4",
					"maxclass" : "number",
					"maximum" : 3,
					"minimum" : 0,
					"numinlets" : 1,
					"numoutlets" : 2,
					"outlettype" : [ "int", "bang" ],
					"parameter_enable" : 0,
					"patching_rect" : [ 29.0, 114.0, 35.0, 17.0 ],
					"triscale" : 0.9
				}

			}
, 			{
				"box" : 				{
					"fontname" : "Arial",
					"fontsize" : 9.0,
					"id" : "obj-5",
					"maxclass" : "newobj",
					"numinlets" : 1,
					"numoutlets" : 2,
					"outlettype" : [ "signal", "signal" ],
					"patching_rect" : [ 125.0, 84.0, 31.0, 17.0 ],
					"text" : "adc~"
				}

			}
, 			{
				"box" : 				{
					"fontname" : "Arial",
					"fontsize" : 9.0,
					"id" : "obj-6",
					"maxclass" : "newobj",
					"numinlets" : 1,
					"numoutlets" : 1,
					"outlettype" : [ "signal" ],
					"patching_rect" : [ 85.0, 84.0, 39.0, 17.0 ],
					"text" : "noise~"
				}

			}
, 			{
				"box" : 				{
					"bgcolor" : [ 0.866667, 0.866667, 0.866667, 1.0 ],
					"fontname" : "Arial",
					"fontsize" : 9.0,
					"htextcolor" : [ 0.870588, 0.870588, 0.870588, 1.0 ],
					"id" : "obj-7",
					"maxclass" : "number~",
					"mode" : 2,
					"numinlets" : 2,
					"numoutlets" : 2,
					"outlettype" : [ "signal", "float" ],
					"patching_rect" : [ 255.0, 282.0, 54.0, 17.0 ],
					"sig" : 0.0
				}

			}
, 			{
				"box" : 				{
					"bgcolor" : [ 0.529412, 0.529412, 0.529412, 1.0 ],
					"bufsize" : 32,
					"calccount" : 32,
					"id" : "obj-8",
					"maxclass" : "scope~",
					"numinlets" : 2,
					"numoutlets" : 0,
					"patching_rect" : [ 231.0, 307.0, 100.0, 69.0 ],
					"rounded" : 0
				}

			}
, 			{
				"box" : 				{
					"bgcolor" : [ 0.866667, 0.866667, 0.866667, 1.0 ],
					"fontname" : "Arial",
					"fontsize" : 9.0,
					"htextcolor" : [ 0.870588, 0.870588, 0.870588, 1.0 ],
					"id" : "obj-9",
					"maxclass" : "number~",
					"mode" : 2,
					"numinlets" : 2,
					"numoutlets" : 2,
					"outlettype" : [ "signal", "float" ],
					"patching_rect" : [ 154.0, 282.0, 54.0, 17.0 ],
					"sig" : 0.0
				}

			}
, 			{
				"box" : 				{
					"bgcolor" : [ 0.529412, 0.529412, 0.529412, 1.0 ],
					"bufsize" : 32,
					"calccount" : 32,
					"id" : "obj-10",
					"maxclass" : "scope~",
					"numinlets" : 2,
					"numoutlets" : 0,
					"patching_rect" : [ 130.0, 307.0, 100.0, 69.0 ],
					"rounded" : 0
				}

			}
, 			{
				"box" : 				{
					"fontname" : "Arial",
					"fontsize" : 9.0,
					"frgb" : 0.0,
					"id" : "obj-11",
					"maxclass" : "comment",
					"numinlets" : 1,
					"numoutlets" : 0,
					"patching_rect" : [ 130.0, 219.0, 124.0, 17.0 ],
					"text" : "smooth factor (default 0)"
				}

			}
, 			{
				"box" : 				{
					"bgcolor" : [ 0.866667, 0.866667, 0.866667, 1.0 ],
					"fontname" : "Arial",
					"fontsize" : 9.0,
					"htextcolor" : [ 0.870588, 0.870588, 0.870588, 1.0 ],
					"id" : "obj-12",
					"maxclass" : "flonum",
					"minimum" : 0.0,
					"numinlets" : 1,
					"numoutlets" : 2,
					"outlettype" : [ "float", "bang" ],
					"parameter_enable" : 0,
					"patching_rect" : [ 156.0, 155.0, 52.0, 17.0 ],
					"triscale" : 0.9
				}

			}
, 			{
				"box" : 				{
					"fontname" : "Arial",
					"fontsize" : 9.0,
					"frgb" : 0.0,
					"id" : "obj-13",
					"maxclass" : "comment",
					"numinlets" : 1,
					"numoutlets" : 0,
					"patching_rect" : [ 130.0, 207.0, 131.0, 17.0 ],
					"text" : "anticipated maximum value"
				}

			}
, 			{
				"box" : 				{
					"fontname" : "Arial",
					"fontsize" : 9.0,
					"frgb" : 0.0,
					"id" : "obj-14",
					"maxclass" : "comment",
					"numinlets" : 1,
					"numoutlets" : 0,
					"patching_rect" : [ 130.0, 195.0, 128.0, 17.0 ],
					"text" : "anticipated minimum value"
				}

			}
, 			{
				"box" : 				{
					"fontname" : "Arial",
					"fontsize" : 9.0,
					"frgb" : 0.0,
					"id" : "obj-15",
					"maxclass" : "comment",
					"numinlets" : 1,
					"numoutlets" : 0,
					"patching_rect" : [ 117.0, 183.0, 98.0, 17.0 ],
					"text" : "optional arguments:"
				}

			}
, 			{
				"box" : 				{
					"fontname" : "Arial",
					"fontsize" : 9.0,
					"frgb" : 0.0,
					"id" : "obj-16",
					"linecount" : 2,
					"maxclass" : "comment",
					"numinlets" : 1,
					"numoutlets" : 0,
					"patching_rect" : [ 137.0, 126.0, 146.0, 27.0 ],
					"text" : "fallback/smooth factor (float) default 0."
				}

			}
, 			{
				"box" : 				{
					"bgcolor" : [ 0.866667, 0.866667, 0.866667, 1.0 ],
					"fontname" : "Arial",
					"fontsize" : 9.0,
					"htextcolor" : [ 0.870588, 0.870588, 0.870588, 1.0 ],
					"id" : "obj-17",
					"maxclass" : "number~",
					"mode" : 2,
					"numinlets" : 2,
					"numoutlets" : 2,
					"outlettype" : [ "signal", "float" ],
					"patching_rect" : [ 53.0, 282.0, 54.0, 17.0 ],
					"sig" : 0.0
				}

			}
, 			{
				"box" : 				{
					"bgcolor" : [ 0.529412, 0.529412, 0.529412, 1.0 ],
					"bufsize" : 32,
					"calccount" : 32,
					"id" : "obj-18",
					"maxclass" : "scope~",
					"numinlets" : 2,
					"numoutlets" : 0,
					"patching_rect" : [ 29.0, 307.0, 100.0, 69.0 ],
					"rounded" : 0
				}

			}
, 			{
				"box" : 				{
					"fontname" : "Arial",
					"fontsize" : 9.0,
					"id" : "obj-19",
					"maxclass" : "newobj",
					"numinlets" : 2,
					"numoutlets" : 1,
					"outlettype" : [ "signal" ],
					"patching_rect" : [ 29.0, 84.0, 55.0, 17.0 ],
					"text" : "phasor~ 1"
				}

			}
, 			{
				"box" : 				{
					"fontname" : "Arial",
					"fontsize" : 9.0,
					"id" : "obj-20",
					"maxclass" : "message",
					"numinlets" : 2,
					"numoutlets" : 1,
					"outlettype" : [ "" ],
					"patching_rect" : [ 409.0, 94.0, 29.0, 15.0 ],
					"text" : "stop"
				}

			}
, 			{
				"box" : 				{
					"fontname" : "Arial",
					"fontsize" : 9.0,
					"id" : "obj-21",
					"maxclass" : "newobj",
					"numinlets" : 2,
					"numoutlets" : 0,
					"patching_rect" : [ 402.0, 116.0, 31.0, 17.0 ],
					"text" : "dac~"
				}

			}
, 			{
				"box" : 				{
					"fontname" : "Arial",
					"fontsize" : 9.0,
					"frgb" : 0.0,
					"id" : "obj-22",
					"maxclass" : "comment",
					"numinlets" : 1,
					"numoutlets" : 0,
					"patching_rect" : [ 435.0, 389.0, 24.0, 17.0 ],
					"text" : "/fO"
				}

			}
, 			{
				"box" : 				{
					"fontname" : "Arial",
					"fontsize" : 9.0,
					"id" : "obj-23",
					"maxclass" : "newobj",
					"numinlets" : 2,
					"numoutlets" : 3,
					"outlettype" : [ "signal", "signal", "signal" ],
					"patching_rect" : [ 29.0, 192.0, 60.0, 17.0 ],
					"text" : "f0.range2~"
				}

			}
, 			{
				"box" : 				{
					"fontname" : "Arial",
					"fontsize" : 18.0,
					"frgb" : 0.0,
					"id" : "obj-24",
					"maxclass" : "comment",
					"numinlets" : 1,
					"numoutlets" : 0,
					"patching_rect" : [ 185.0, 21.0, 107.0, 27.0 ],
					"text" : "f0.range2~"
				}

			}
, 			{
				"box" : 				{
					"fontname" : "Arial",
					"fontsize" : 9.0,
					"frgb" : 0.0,
					"id" : "obj-25",
					"linecount" : 2,
					"maxclass" : "comment",
					"numinlets" : 1,
					"numoutlets" : 0,
					"patching_rect" : [ 137.0, 46.0, 232.0, 27.0 ],
					"text" : "finds minimum, middle and maximum values of a signal and remembers them with a smooth factor"
				}

			}
, 			{
				"box" : 				{
					"fontname" : "Arial",
					"fontsize" : 9.0,
					"frgb" : 0.0,
					"id" : "obj-26",
					"maxclass" : "comment",
					"numinlets" : 1,
					"numoutlets" : 0,
					"patching_rect" : [ 291.0, 29.0, 28.0, 17.0 ],
					"text" : "2.01"
				}

			}
, 			{
				"box" : 				{
					"id" : "obj-27",
					"maxclass" : "fpic",
					"numinlets" : 1,
					"numoutlets" : 0,
					"patching_rect" : [ 332.0, 259.0, 137.0, 151.0 ],
					"pic" : "f0logo.png"
				}

			}
, 			{
				"box" : 				{
					"fontname" : "Arial",
					"fontsize" : 9.0,
					"id" : "obj-28",
					"maxclass" : "message",
					"numinlets" : 2,
					"numoutlets" : 1,
					"outlettype" : [ "" ],
					"patching_rect" : [ 402.0, 78.0, 67.0, 15.0 ],
					"text" : "startwindow"
				}

			}
, 			{
				"box" : 				{
					"fontname" : "Arial",
					"fontsize" : 9.0,
					"id" : "obj-29",
					"maxclass" : "newobj",
					"numinlets" : 0,
					"numoutlets" : 0,
					"patcher" : 					{
						"fileversion" : 1,
						"appversion" : 						{
							"major" : 6,
							"minor" : 1,
							"revision" : 3,
							"architecture" : "x64"
						}
,
						"rect" : [ 191.0, 44.0, 588.0, 553.0 ],
						"bglocked" : 0,
						"openinpresentation" : 0,
						"default_fontsize" : 12.0,
						"default_fontface" : 0,
						"default_fontname" : "Arial",
						"gridonopen" : 0,
						"gridsize" : [ 15.0, 15.0 ],
						"gridsnaponopen" : 0,
						"statusbarvisible" : 2,
						"toolbarvisible" : 1,
						"boxanimatetime" : 200,
						"imprint" : 0,
						"enablehscroll" : 1,
						"enablevscroll" : 1,
						"devicewidth" : 0.0,
						"description" : "",
						"digest" : "",
						"tags" : "",
						"boxes" : [ 							{
								"box" : 								{
									"bgcolor" : [ 0.866667, 0.866667, 0.866667, 1.0 ],
									"fontname" : "Arial",
									"fontsize" : 9.0,
									"htextcolor" : [ 0.870588, 0.870588, 0.870588, 1.0 ],
									"id" : "obj-1",
									"maxclass" : "number~",
									"mode" : 2,
									"numinlets" : 2,
									"numoutlets" : 2,
									"outlettype" : [ "signal", "float" ],
									"patching_rect" : [ 227.0, 242.0, 40.0, 17.0 ],
									"sig" : 0.0
								}

							}
, 							{
								"box" : 								{
									"bgcolor" : [ 0.866667, 0.866667, 0.866667, 1.0 ],
									"fontname" : "Arial",
									"fontsize" : 9.0,
									"ft1" : 5.0,
									"htextcolor" : [ 0.870588, 0.870588, 0.870588, 1.0 ],
									"id" : "obj-2",
									"maxclass" : "number~",
									"mode" : 2,
									"numinlets" : 2,
									"numoutlets" : 2,
									"outlettype" : [ "signal", "float" ],
									"patching_rect" : [ 184.0, 242.0, 40.0, 17.0 ],
									"sig" : 0.0
								}

							}
, 							{
								"box" : 								{
									"bgcolor" : [ 0.866667, 0.866667, 0.866667, 1.0 ],
									"fontname" : "Arial",
									"fontsize" : 9.0,
									"ft1" : 5.0,
									"htextcolor" : [ 0.870588, 0.870588, 0.870588, 1.0 ],
									"id" : "obj-3",
									"maxclass" : "number~",
									"mode" : 2,
									"numinlets" : 2,
									"numoutlets" : 2,
									"outlettype" : [ "signal", "float" ],
									"patching_rect" : [ 141.0, 242.0, 40.0, 17.0 ],
									"sig" : 0.0
								}

							}
, 							{
								"box" : 								{
									"fontname" : "Arial",
									"fontsize" : 9.0,
									"id" : "obj-4",
									"maxclass" : "newobj",
									"numinlets" : 2,
									"numoutlets" : 1,
									"outlettype" : [ "signal" ],
									"patching_rect" : [ 227.0, 268.0, 40.0, 17.0 ],
									"text" : "cycle~"
								}

							}
, 							{
								"box" : 								{
									"fontname" : "Arial",
									"fontsize" : 9.0,
									"id" : "obj-5",
									"maxclass" : "newobj",
									"numinlets" : 2,
									"numoutlets" : 1,
									"outlettype" : [ "signal" ],
									"patching_rect" : [ 184.0, 268.0, 40.0, 17.0 ],
									"text" : "cycle~"
								}

							}
, 							{
								"box" : 								{
									"fontname" : "Arial",
									"fontsize" : 9.0,
									"id" : "obj-6",
									"maxclass" : "newobj",
									"numinlets" : 2,
									"numoutlets" : 1,
									"outlettype" : [ "signal" ],
									"patching_rect" : [ 141.0, 268.0, 40.0, 17.0 ],
									"text" : "cycle~"
								}

							}
, 							{
								"box" : 								{
									"bubblesize" : 8,
									"id" : "obj-7",
									"margin" : 4,
									"maxclass" : "preset",
									"numinlets" : 1,
									"numoutlets" : 4,
									"outlettype" : [ "preset", "int", "preset", "int" ],
									"patching_rect" : [ 51.0, 89.0, 47.0, 27.0 ],
									"preset_data" : [ 										{
											"number" : 1,
											"data" : [ 6, "obj-16", "gain~", "list", 89, 10.0, 5, "obj-15", "flonum", "float", 0.0, 5, "obj-14", "flonum", "float", 0.0, 5, "obj-13", "flonum", "float", 0.0, 5, "obj-12", "number~", "list", 0.0, 5, "obj-3", "number~", "list", 0.0, 5, "obj-2", "number~", "list", 0.0, 5, "obj-1", "number~", "list", 0.0 ]
										}
, 										{
											"number" : 2,
											"data" : [ 6, "obj-16", "gain~", "list", 89, 10.0, 5, "obj-15", "flonum", "float", 0.0, 5, "obj-14", "flonum", "float", 0.0, 5, "obj-13", "flonum", "float", 0.05, 5, "obj-12", "number~", "list", 0.0, 5, "obj-3", "number~", "list", 0.0, 5, "obj-2", "number~", "list", 0.0, 5, "obj-1", "number~", "list", 0.0 ]
										}
, 										{
											"number" : 3,
											"data" : [ 6, "obj-16", "gain~", "list", 89, 10.0, 5, "obj-15", "flonum", "float", 0.1, 5, "obj-14", "flonum", "float", 0.05, 5, "obj-13", "flonum", "float", 0.05, 5, "obj-12", "number~", "list", 0.0, 5, "obj-3", "number~", "list", 0.0, 5, "obj-2", "number~", "list", 0.0, 5, "obj-1", "number~", "list", 0.0 ]
										}
, 										{
											"number" : 4,
											"data" : [ 6, "obj-16", "gain~", "list", 89, 10.0, 5, "obj-15", "flonum", "float", 1.1, 5, "obj-14", "flonum", "float", 0.05, 5, "obj-13", "flonum", "float", 0.11, 5, "obj-12", "number~", "list", 0.0, 5, "obj-3", "number~", "list", 0.0, 5, "obj-2", "number~", "list", 0.0, 5, "obj-1", "number~", "list", 0.0 ]
										}
, 										{
											"number" : 5,
											"data" : [ 6, "obj-16", "gain~", "list", 89, 10.0, 5, "obj-15", "flonum", "float", 2.0, 5, "obj-14", "flonum", "float", 0.15, 5, "obj-13", "flonum", "float", 0.3, 5, "obj-12", "number~", "list", 0.0, 5, "obj-3", "number~", "list", 0.0, 5, "obj-2", "number~", "list", 0.0, 5, "obj-1", "number~", "list", 0.0 ]
										}
, 										{
											"number" : 6,
											"data" : [ 6, "obj-16", "gain~", "list", 89, 10.0, 5, "obj-15", "flonum", "float", 2.0, 5, "obj-14", "flonum", "float", 0.15, 5, "obj-13", "flonum", "float", 0.56, 5, "obj-12", "number~", "list", 0.0, 5, "obj-3", "number~", "list", 0.0, 5, "obj-2", "number~", "list", 0.0, 5, "obj-1", "number~", "list", 0.0 ]
										}
, 										{
											"number" : 7,
											"data" : [ 6, "obj-16", "gain~", "list", 89, 10.0, 5, "obj-15", "flonum", "float", 0.2, 5, "obj-14", "flonum", "float", 0.27, 5, "obj-13", "flonum", "float", 0.56, 5, "obj-12", "number~", "list", 0.0, 5, "obj-3", "number~", "list", 0.0, 5, "obj-2", "number~", "list", 0.0, 5, "obj-1", "number~", "list", 0.0 ]
										}
, 										{
											"number" : 8,
											"data" : [ 6, "obj-16", "gain~", "list", 89, 10.0, 5, "obj-15", "flonum", "float", 0.22, 5, "obj-14", "flonum", "float", 0.55, 5, "obj-13", "flonum", "float", 0.8, 5, "obj-12", "number~", "list", 0.0, 5, "obj-3", "number~", "list", 0.0, 5, "obj-2", "number~", "list", 0.0, 5, "obj-1", "number~", "list", 0.0 ]
										}
 ],
									"spacing" : 2
								}

							}
, 							{
								"box" : 								{
									"fontname" : "Arial",
									"fontsize" : 9.0,
									"id" : "obj-8",
									"maxclass" : "newobj",
									"numinlets" : 2,
									"numoutlets" : 2,
									"outlettype" : [ "signal", "bang" ],
									"patching_rect" : [ 159.0, 121.0, 32.0, 17.0 ],
									"text" : "line~"
								}

							}
, 							{
								"box" : 								{
									"fontname" : "Arial",
									"fontsize" : 9.0,
									"id" : "obj-9",
									"maxclass" : "message",
									"numinlets" : 2,
									"numoutlets" : 1,
									"outlettype" : [ "" ],
									"patching_rect" : [ 159.0, 102.0, 80.0, 15.0 ],
									"text" : "400, 800 1000"
								}

							}
, 							{
								"box" : 								{
									"fontname" : "Arial",
									"fontsize" : 9.0,
									"hidden" : 1,
									"id" : "obj-10",
									"maxclass" : "newobj",
									"numinlets" : 1,
									"numoutlets" : 1,
									"outlettype" : [ "bang" ],
									"patching_rect" : [ 159.0, 63.0, 48.0, 17.0 ],
									"text" : "loadbang"
								}

							}
, 							{
								"box" : 								{
									"fontname" : "Arial",
									"fontsize" : 9.0,
									"frgb" : 0.0,
									"id" : "obj-11",
									"maxclass" : "comment",
									"numinlets" : 1,
									"numoutlets" : 0,
									"patching_rect" : [ 253.0, 179.0, 45.0, 17.0 ],
									"text" : "fallback"
								}

							}
, 							{
								"box" : 								{
									"bgcolor" : [ 0.866667, 0.866667, 0.866667, 1.0 ],
									"fontname" : "Arial",
									"fontsize" : 9.0,
									"ft1" : 5.0,
									"htextcolor" : [ 0.870588, 0.870588, 0.870588, 1.0 ],
									"id" : "obj-12",
									"maxclass" : "number~",
									"mode" : 2,
									"numinlets" : 2,
									"numoutlets" : 2,
									"outlettype" : [ "signal", "float" ],
									"patching_rect" : [ 253.0, 162.0, 45.0, 17.0 ],
									"sig" : 0.0
								}

							}
, 							{
								"box" : 								{
									"bgcolor" : [ 0.866667, 0.866667, 0.866667, 1.0 ],
									"fontname" : "Arial",
									"fontsize" : 9.0,
									"htextcolor" : [ 0.870588, 0.870588, 0.870588, 1.0 ],
									"id" : "obj-13",
									"maxclass" : "flonum",
									"numinlets" : 1,
									"numoutlets" : 2,
									"outlettype" : [ "float", "bang" ],
									"parameter_enable" : 0,
									"patching_rect" : [ 325.0, 71.0, 35.0, 17.0 ],
									"triscale" : 0.9
								}

							}
, 							{
								"box" : 								{
									"bgcolor" : [ 0.866667, 0.866667, 0.866667, 1.0 ],
									"fontname" : "Arial",
									"fontsize" : 9.0,
									"htextcolor" : [ 0.870588, 0.870588, 0.870588, 1.0 ],
									"id" : "obj-14",
									"maxclass" : "flonum",
									"numinlets" : 1,
									"numoutlets" : 2,
									"outlettype" : [ "float", "bang" ],
									"parameter_enable" : 0,
									"patching_rect" : [ 289.0, 71.0, 35.0, 17.0 ],
									"triscale" : 0.9
								}

							}
, 							{
								"box" : 								{
									"bgcolor" : [ 0.866667, 0.866667, 0.866667, 1.0 ],
									"fontname" : "Arial",
									"fontsize" : 9.0,
									"htextcolor" : [ 0.870588, 0.870588, 0.870588, 1.0 ],
									"id" : "obj-15",
									"maxclass" : "flonum",
									"numinlets" : 1,
									"numoutlets" : 2,
									"outlettype" : [ "float", "bang" ],
									"parameter_enable" : 0,
									"patching_rect" : [ 253.0, 71.0, 35.0, 17.0 ],
									"triscale" : 0.9
								}

							}
, 							{
								"box" : 								{
									"id" : "obj-16",
									"maxclass" : "gain~",
									"numinlets" : 2,
									"numoutlets" : 2,
									"orientation" : 2,
									"outlettype" : [ "signal", "int" ],
									"parameter_enable" : 0,
									"patching_rect" : [ 160.0, 314.0, 22.0, 122.0 ]
								}

							}
, 							{
								"box" : 								{
									"fontname" : "Arial",
									"fontsize" : 9.0,
									"id" : "obj-17",
									"maxclass" : "newobj",
									"numinlets" : 2,
									"numoutlets" : 1,
									"outlettype" : [ "signal" ],
									"patching_rect" : [ 253.0, 135.0, 27.0, 17.0 ],
									"text" : "+~"
								}

							}
, 							{
								"box" : 								{
									"fontname" : "Arial",
									"fontsize" : 9.0,
									"id" : "obj-18",
									"maxclass" : "newobj",
									"numinlets" : 2,
									"numoutlets" : 1,
									"outlettype" : [ "signal" ],
									"patching_rect" : [ 253.0, 113.0, 27.0, 17.0 ],
									"text" : "*~"
								}

							}
, 							{
								"box" : 								{
									"fontname" : "Arial",
									"fontsize" : 9.0,
									"id" : "obj-19",
									"maxclass" : "newobj",
									"numinlets" : 2,
									"numoutlets" : 3,
									"outlettype" : [ "signal", "signal", "signal" ],
									"patching_rect" : [ 159.0, 199.0, 60.0, 17.0 ],
									"text" : "f0.range2~"
								}

							}
, 							{
								"box" : 								{
									"fontname" : "Arial",
									"fontsize" : 9.0,
									"id" : "obj-20",
									"maxclass" : "message",
									"numinlets" : 2,
									"numoutlets" : 1,
									"outlettype" : [ "" ],
									"patching_rect" : [ 224.0, 484.0, 29.0, 15.0 ],
									"text" : "stop"
								}

							}
, 							{
								"box" : 								{
									"fontname" : "Arial",
									"fontsize" : 9.0,
									"id" : "obj-21",
									"maxclass" : "newobj",
									"numinlets" : 2,
									"numoutlets" : 0,
									"patching_rect" : [ 217.0, 506.0, 31.0, 17.0 ],
									"text" : "dac~"
								}

							}
, 							{
								"box" : 								{
									"fontname" : "Arial",
									"fontsize" : 9.0,
									"id" : "obj-22",
									"maxclass" : "message",
									"numinlets" : 2,
									"numoutlets" : 1,
									"outlettype" : [ "" ],
									"patching_rect" : [ 217.0, 468.0, 67.0, 15.0 ],
									"text" : "startwindow"
								}

							}
, 							{
								"box" : 								{
									"fontname" : "Arial",
									"fontsize" : 9.0,
									"id" : "obj-23",
									"maxclass" : "newobj",
									"numinlets" : 2,
									"numoutlets" : 1,
									"outlettype" : [ "signal" ],
									"patching_rect" : [ 253.0, 91.0, 40.0, 17.0 ],
									"text" : "cycle~"
								}

							}
 ],
						"lines" : [ 							{
								"patchline" : 								{
									"destination" : [ "obj-9", 0 ],
									"disabled" : 0,
									"hidden" : 1,
									"source" : [ "obj-10", 0 ]
								}

							}
, 							{
								"patchline" : 								{
									"destination" : [ "obj-19", 1 ],
									"disabled" : 0,
									"hidden" : 0,
									"source" : [ "obj-12", 1 ]
								}

							}
, 							{
								"patchline" : 								{
									"destination" : [ "obj-17", 1 ],
									"disabled" : 0,
									"hidden" : 0,
									"source" : [ "obj-13", 0 ]
								}

							}
, 							{
								"patchline" : 								{
									"destination" : [ "obj-18", 1 ],
									"disabled" : 0,
									"hidden" : 0,
									"source" : [ "obj-14", 0 ]
								}

							}
, 							{
								"patchline" : 								{
									"destination" : [ "obj-23", 0 ],
									"disabled" : 0,
									"hidden" : 0,
									"source" : [ "obj-15", 0 ]
								}

							}
, 							{
								"patchline" : 								{
									"destination" : [ "obj-21", 1 ],
									"disabled" : 0,
									"hidden" : 0,
									"source" : [ "obj-16", 0 ]
								}

							}
, 							{
								"patchline" : 								{
									"destination" : [ "obj-21", 0 ],
									"disabled" : 0,
									"hidden" : 0,
									"source" : [ "obj-16", 0 ]
								}

							}
, 							{
								"patchline" : 								{
									"destination" : [ "obj-12", 0 ],
									"disabled" : 0,
									"hidden" : 0,
									"source" : [ "obj-17", 0 ]
								}

							}
, 							{
								"patchline" : 								{
									"destination" : [ "obj-17", 0 ],
									"disabled" : 0,
									"hidden" : 0,
									"source" : [ "obj-18", 0 ]
								}

							}
, 							{
								"patchline" : 								{
									"destination" : [ "obj-1", 0 ],
									"disabled" : 0,
									"hidden" : 0,
									"source" : [ "obj-19", 2 ]
								}

							}
, 							{
								"patchline" : 								{
									"destination" : [ "obj-2", 0 ],
									"disabled" : 0,
									"hidden" : 0,
									"source" : [ "obj-19", 1 ]
								}

							}
, 							{
								"patchline" : 								{
									"destination" : [ "obj-3", 0 ],
									"disabled" : 0,
									"hidden" : 0,
									"source" : [ "obj-19", 0 ]
								}

							}
, 							{
								"patchline" : 								{
									"destination" : [ "obj-4", 0 ],
									"disabled" : 0,
									"hidden" : 0,
									"source" : [ "obj-19", 2 ]
								}

							}
, 							{
								"patchline" : 								{
									"destination" : [ "obj-5", 0 ],
									"disabled" : 0,
									"hidden" : 0,
									"source" : [ "obj-19", 1 ]
								}

							}
, 							{
								"patchline" : 								{
									"destination" : [ "obj-6", 0 ],
									"disabled" : 0,
									"hidden" : 0,
									"source" : [ "obj-19", 0 ]
								}

							}
, 							{
								"patchline" : 								{
									"destination" : [ "obj-21", 0 ],
									"disabled" : 0,
									"hidden" : 0,
									"source" : [ "obj-20", 0 ]
								}

							}
, 							{
								"patchline" : 								{
									"destination" : [ "obj-21", 0 ],
									"disabled" : 0,
									"hidden" : 0,
									"source" : [ "obj-22", 0 ]
								}

							}
, 							{
								"patchline" : 								{
									"destination" : [ "obj-18", 0 ],
									"disabled" : 0,
									"hidden" : 0,
									"source" : [ "obj-23", 0 ]
								}

							}
, 							{
								"patchline" : 								{
									"destination" : [ "obj-16", 0 ],
									"disabled" : 0,
									"hidden" : 0,
									"source" : [ "obj-4", 0 ]
								}

							}
, 							{
								"patchline" : 								{
									"destination" : [ "obj-16", 0 ],
									"disabled" : 0,
									"hidden" : 0,
									"source" : [ "obj-5", 0 ]
								}

							}
, 							{
								"patchline" : 								{
									"destination" : [ "obj-16", 0 ],
									"disabled" : 0,
									"hidden" : 0,
									"source" : [ "obj-6", 0 ]
								}

							}
, 							{
								"patchline" : 								{
									"destination" : [ "obj-19", 0 ],
									"disabled" : 0,
									"hidden" : 0,
									"source" : [ "obj-8", 0 ]
								}

							}
, 							{
								"patchline" : 								{
									"destination" : [ "obj-9", 0 ],
									"disabled" : 0,
									"hidden" : 0,
									"midpoints" : [ 181.5, 140.0, 243.0, 140.0, 243.0, 94.0, 168.5, 94.0 ],
									"source" : [ "obj-8", 1 ]
								}

							}
, 							{
								"patchline" : 								{
									"destination" : [ "obj-8", 0 ],
									"disabled" : 0,
									"hidden" : 0,
									"source" : [ "obj-9", 0 ]
								}

							}
 ]
					}
,
					"patching_rect" : [ 406.0, 155.0, 50.0, 17.0 ],
					"saved_object_attributes" : 					{
						"default_fontface" : 0,
						"default_fontname" : "Arial",
						"default_fontsize" : 12.0,
						"description" : "",
						"digest" : "",
						"fontface" : 0,
						"fontname" : "Arial",
						"fontsize" : 12.0,
						"globalpatchername" : "",
						"tags" : ""
					}
,
					"text" : "p more..."
				}

			}
, 			{
				"box" : 				{
					"fontname" : "Arial",
					"fontsize" : 9.0,
					"id" : "obj-30",
					"maxclass" : "newobj",
					"numinlets" : 4,
					"numoutlets" : 1,
					"outlettype" : [ "signal" ],
					"patching_rect" : [ 29.0, 136.0, 62.0, 17.0 ],
					"text" : "selector~ 3"
				}

			}
, 			{
				"box" : 				{
					"fontname" : "Arial",
					"fontsize" : 9.0,
					"frgb" : 0.0,
					"id" : "obj-31",
					"maxclass" : "comment",
					"numinlets" : 1,
					"numoutlets" : 0,
					"patching_rect" : [ 53.0, 381.0, 24.0, 17.0 ],
					"text" : "min"
				}

			}
 ],
		"lines" : [ 			{
				"patchline" : 				{
					"destination" : [ "obj-23", 1 ],
					"disabled" : 0,
					"hidden" : 0,
					"source" : [ "obj-12", 0 ]
				}

			}
, 			{
				"patchline" : 				{
					"destination" : [ "obj-30", 1 ],
					"disabled" : 0,
					"hidden" : 0,
					"source" : [ "obj-19", 0 ]
				}

			}
, 			{
				"patchline" : 				{
					"destination" : [ "obj-21", 0 ],
					"disabled" : 0,
					"hidden" : 0,
					"source" : [ "obj-20", 0 ]
				}

			}
, 			{
				"patchline" : 				{
					"destination" : [ "obj-10", 0 ],
					"disabled" : 0,
					"hidden" : 0,
					"source" : [ "obj-23", 1 ]
				}

			}
, 			{
				"patchline" : 				{
					"destination" : [ "obj-17", 0 ],
					"disabled" : 0,
					"hidden" : 0,
					"source" : [ "obj-23", 0 ]
				}

			}
, 			{
				"patchline" : 				{
					"destination" : [ "obj-18", 0 ],
					"disabled" : 0,
					"hidden" : 0,
					"source" : [ "obj-23", 0 ]
				}

			}
, 			{
				"patchline" : 				{
					"destination" : [ "obj-7", 0 ],
					"disabled" : 0,
					"hidden" : 0,
					"source" : [ "obj-23", 2 ]
				}

			}
, 			{
				"patchline" : 				{
					"destination" : [ "obj-8", 0 ],
					"disabled" : 0,
					"hidden" : 0,
					"source" : [ "obj-23", 2 ]
				}

			}
, 			{
				"patchline" : 				{
					"destination" : [ "obj-9", 0 ],
					"disabled" : 0,
					"hidden" : 0,
					"source" : [ "obj-23", 1 ]
				}

			}
, 			{
				"patchline" : 				{
					"destination" : [ "obj-21", 0 ],
					"disabled" : 0,
					"hidden" : 0,
					"source" : [ "obj-28", 0 ]
				}

			}
, 			{
				"patchline" : 				{
					"destination" : [ "obj-23", 0 ],
					"disabled" : 0,
					"hidden" : 0,
					"source" : [ "obj-30", 0 ]
				}

			}
, 			{
				"patchline" : 				{
					"destination" : [ "obj-3", 0 ],
					"disabled" : 0,
					"hidden" : 0,
					"source" : [ "obj-30", 0 ]
				}

			}
, 			{
				"patchline" : 				{
					"destination" : [ "obj-4", 0 ],
					"disabled" : 0,
					"hidden" : 1,
					"source" : [ "obj-32", 0 ]
				}

			}
, 			{
				"patchline" : 				{
					"destination" : [ "obj-30", 0 ],
					"disabled" : 0,
					"hidden" : 0,
					"source" : [ "obj-4", 0 ]
				}

			}
, 			{
				"patchline" : 				{
					"destination" : [ "obj-30", 3 ],
					"disabled" : 0,
					"hidden" : 0,
					"source" : [ "obj-5", 0 ]
				}

			}
, 			{
				"patchline" : 				{
					"destination" : [ "obj-30", 2 ],
					"disabled" : 0,
					"hidden" : 0,
					"source" : [ "obj-6", 0 ]
				}

			}
 ],
		"dependency_cache" : [ 			{
				"name" : "f0logo.png",
				"bootpath" : "/Users/Stirling/Downloads/f0ext130630osx/helpfiles",
				"patcherrelativepath" : ".",
				"type" : "PNG ",
				"implicit" : 1
			}
, 			{
				"name" : "f0.range2~.mxo",
				"type" : "iLaX"
			}
 ]
	}

}
